<svg class="svg-icon" style="width: 1em; height: 1em;vertical-align: middle;fill: currentColor;overflow: hidden;" viewBox="0 0 1024 1024" version="1.1" xmlns="http://www.w3.org/2000/svg"><path d="M54.881958 439.890682l23.64042-50.090838 100.345406 177.401386c0 0 53.942563-12.345166 72.855308 21.395286 0 0 17.793248 20.519336 10.015098 59.234079 0 0 11.139711 8.090259 12.020778 13.139252 0 0 37.109176-8.975419 59.470463 17.389042 0 0 20.515243 16.349363 18.190291 48.249911 0 0 14.748912 6.328126 17.793248 15.065114 0 0 36.467563-9.054213 54.175877 12.260232 0 0 21.638833 20.202111 20.037359 43.843554l33.905204 24.761963c0 0 31.576159 2.64627 36.626175 27.331485l30.371728 22.440082c0 0 48.567135 19.23611 51.29527-29.331026l-114.048499-86.87972c0 0-13.384845-35.019585 28.449959-29.572526l169.992649 119.735012c0 0 27.810393 11.862165 44.636616-14.504342 0 0 16.350386-22.762423-6.890944-47.447639L536.957415 653.673673c0 0-15.947204-36.547381 25.087375-33.740452l214.546378 151.794172c0 0 30.455639 12.099572 43.277666-10.578939 0 0 17.389042-22.678512 0-46.084595L583.03894 542.27656c0 0-14.264888-41.433668 30.052456-30.693046l244.202814 173.913958c0 0 36.945447 11.617595 53.375651-18.514679 0 0 20.915355-32.377408-7.130398-59.06421L558.116317 306.572304c0 0-64.199161-30.696116-102.504582 33.500998 0 0-6.732331 104.59008-122.9441 123.660414 0 0-79.264275-6.088672-60.82839-58.099233 0 0 23.24133-30.782074 21.236674-95.613638 0 0 2.64627-46.482661 34.864042-86.160335L142.150534 223.860511l27.332509-56.656371 249.2559 0c0 0 77.177753-43.76169 135.363967-39.672558 0 0 75.899644 4.084015 96.255251 15.708773 0 0 192.59646 32.137954 237.642398 24.604374l75.020624 164.273391-25.666566 245.101277c0 0 49.210795 50.573839 12.900821 111.88523-10.094916 20.593014-36.06131 40.470737-78.459956 42.391483 0 0 6.492878 41.358967-23.242354 64.679092 0 0-21.877263 29.974685-74.852802 21.718651 0 0 3.044336 36.547381-32.058137 60.827367 0 0-41.756009 35.905768-106.271372-7.851828 0 0-10.260691 41.114396-61.794391 49.52802 0 0-37.58706 5.851265-59.4633-15.304568 0 0-39.35431 74.133418-95.374184 32.377408 0 0-35.502585-29.410843-10.578939-71.00824 0 0-47.765887 75.495438-104.509239 18.752086 0 0-31.497365-23.644513-2.40477-73.173556 0 0-45.038776 51.296293-94.650707 4.812609 0 0-33.82027-27.649733-6.812149-79.103616 0 0-46.079478 54.578036-99.777471 2.564405 0 0-22.520923-20.75572-9.53926-66.918086l51.937906-71.009264L54.881958 439.890682 54.881958 439.890682M54.881958 439.890682 54.881958 439.890682z"  /></svg>